<?xml version="1.0" encoding="UTF-8" standalone="no"?>
<!-- Created with Inkscape (http://www.inkscape.org/) -->

<svg
   xmlns:dc="http://purl.org/dc/elements/1.1/"
   xmlns:cc="http://creativecommons.org/ns#"
   xmlns:rdf="http://www.w3.org/1999/02/22-rdf-syntax-ns#"
   xmlns:svg="http://www.w3.org/2000/svg"
   xmlns="http://www.w3.org/2000/svg"
   xmlns:sodipodi="http://sodipodi.sourceforge.net/DTD/sodipodi-0.dtd"
   xmlns:inkscape="http://www.inkscape.org/namespaces/inkscape"
   width="744.09448819"
   height="1052.3622047"
   id="svg2"
   version="1.1"
   inkscape:version="0.48.4 r9939"
   sodipodi:docname="New document 1">
  <defs
     id="defs4" />
  <sodipodi:namedview
     id="base"
     pagecolor="#ffffff"
     bordercolor="#666666"
     borderopacity="1.0"
     inkscape:pageopacity="0.0"
     inkscape:pageshadow="2"
     inkscape:zoom="0.98994949"
     inkscape:cx="654.67093"
     inkscape:cy="641.72338"
     inkscape:document-units="px"
     inkscape:current-layer="layer1"
     showgrid="false"
     inkscape:window-width="1140"
     inkscape:window-height="752"
     inkscape:window-x="526"
     inkscape:window-y="161"
     inkscape:window-maximized="0" />
  <metadata
     id="metadata7">
    <rdf:RDF>
      <cc:Work
         rdf:about="">
        <dc:format>image/svg+xml</dc:format>
        <dc:type
           rdf:resource="http://purl.org/dc/dcmitype/StillImage" />
        <dc:title></dc:title>
      </cc:Work>
    </rdf:RDF>
  </metadata>
  <g
     inkscape:label="Layer 1"
     inkscape:groupmode="layer"
     id="layer1">
    <g
       id="g4113"
       transform="matrix(1.4989388,0,0,1,-149.53053,0)"
       inkscape:export-filename="D:\Projects\GitHub\taskManager\app\assets\images\bannergoals.png"
       inkscape:export-xdpi="42.307205"
       inkscape:export-ydpi="42.307205">
      <path
         inkscape:export-ydpi="42.307205"
         inkscape:export-xdpi="42.307205"
         inkscape:export-filename="D:\Projects\GitHub\taskManager\app\assets\images\bannergoals.png"
         transform="translate(-101.01525,-295.97469)"
         d="m 387.89858,522.53717 c 0,17.0157 -36.40699,30.80965 -81.31728,30.80965 -44.9103,0 -81.31728,-13.79395 -81.31728,-30.80965 0,-17.0157 36.40698,-30.80965 81.31728,-30.80965 44.91029,0 81.31728,13.79395 81.31728,30.80965 z"
         sodipodi:ry="30.809652"
         sodipodi:rx="81.317284"
         sodipodi:cy="522.53717"
         sodipodi:cx="306.5813"
         id="path3755"
         style="fill:#ecf0f1;fill-opacity:1;stroke:#ecf0f1;stroke-width:1.38399994;stroke-miterlimit:4;stroke-opacity:1;stroke-dasharray:none"
         sodipodi:type="arc" />
      <path
         inkscape:export-ydpi="42.307205"
         inkscape:export-xdpi="42.307205"
         inkscape:export-filename="D:\Projects\GitHub\taskManager\app\assets\images\bannergoals.png"
         transform="matrix(0.85607013,0,0,0.74748998,101.97799,-229.50696)"
         d="m 230.31478,645.27069 c 0,25.10513 -32.56277,45.45686 -72.73098,45.45686 -40.16821,0 -72.730979,-20.35173 -72.730979,-45.45686 0,-25.10513 32.562769,-45.45686 72.730979,-45.45686 40.16821,0 72.73098,20.35173 72.73098,45.45686 z"
         sodipodi:ry="45.456863"
         sodipodi:rx="72.73098"
         sodipodi:cy="645.27069"
         sodipodi:cx="157.5838"
         id="path3757"
         style="fill:#ffffff;fill-opacity:1;stroke:#ffffff;stroke-width:1.38399994;stroke-miterlimit:4;stroke-opacity:1;stroke-dasharray:none"
         sodipodi:type="arc" />
    </g>
    <path
       sodipodi:type="arc"
       style="fill:#9b59b6;fill-opacity:1;stroke:#9b59b6;stroke-width:1.38399994;stroke-miterlimit:4;stroke-opacity:1;stroke-dasharray:none"
       id="path2985"
       sodipodi:cx="365.67523"
       sodipodi:cy="484.65646"
       sodipodi:rx="76.771591"
       sodipodi:ry="29.294424"
       d="m 442.44682,484.65646 a 76.771591,29.294424 0 1 1 -153.54318,0 76.771591,29.294424 0 1 1 153.54318,0 z"
       transform="matrix(0.60597926,0,0,1.3984284,58.22066,-424.93093)"
       inkscape:export-filename="D:\Projects\GitHub\taskManager\app\assets\images\bannergoals.png"
       inkscape:export-xdpi="42.307205"
       inkscape:export-ydpi="42.307205" />
    <path
       sodipodi:type="arc"
       style="fill:#9b59b6;fill-opacity:1;stroke:#9b59b6;stroke-width:1.38399994;stroke-miterlimit:4;stroke-opacity:1;stroke-dasharray:none"
       id="path2985-7"
       sodipodi:cx="365.67523"
       sodipodi:cy="484.65646"
       sodipodi:rx="76.771591"
       sodipodi:ry="29.294424"
       d="m 442.44682,484.65646 a 76.771591,29.294424 0 1 1 -153.54318,0 76.771591,29.294424 0 1 1 153.54318,0 z"
       transform="matrix(0.39794382,0,0,1.0428872,67.624002,-13.209428)" />
    <path
       sodipodi:type="arc"
       style="fill:#9b59b6;fill-opacity:1;stroke:#9b59b6;stroke-width:1.38399994;stroke-miterlimit:4;stroke-opacity:1;stroke-dasharray:none"
       id="path2985-7-2"
       sodipodi:cx="365.67523"
       sodipodi:cy="484.65646"
       sodipodi:rx="76.771591"
       sodipodi:ry="29.294424"
       d="m 442.44682,484.65646 a 76.771591,29.294424 0 1 1 -153.54318,0 76.771591,29.294424 0 1 1 153.54318,0 z"
       transform="matrix(0.39794382,0,0,1.0428872,115.10116,-28.86679)" />
    <path
       sodipodi:type="arc"
       style="fill:#9b59b6;fill-opacity:1;stroke:#9b59b6;stroke-width:1.38399994;stroke-miterlimit:4;stroke-opacity:1;stroke-dasharray:none"
       id="path2985-7-4"
       sodipodi:cx="365.67523"
       sodipodi:cy="484.65646"
       sodipodi:rx="76.771591"
       sodipodi:ry="29.294424"
       d="m 442.44682,484.65646 a 76.771591,29.294424 0 1 1 -153.54318,0 76.771591,29.294424 0 1 1 153.54318,0 z"
       transform="matrix(0.39794382,0,0,1.0428872,160.55802,-30.887095)" />
    <path
       sodipodi:type="arc"
       style="fill:#9b59b6;fill-opacity:1;stroke:#9b59b6;stroke-width:1.38399994;stroke-miterlimit:4;stroke-opacity:1;stroke-dasharray:none"
       id="path2985-7-5"
       sodipodi:cx="365.67523"
       sodipodi:cy="484.65646"
       sodipodi:rx="76.771591"
       sodipodi:ry="29.294424"
       d="m 442.44682,484.65646 a 76.771591,29.294424 0 1 1 -153.54318,0 76.771591,29.294424 0 1 1 153.54318,0 z"
       transform="matrix(0.39794382,0,0,1.0428872,195.91337,-2.6028246)" />
    <path
       sodipodi:type="arc"
       style="fill:#9b59b6;fill-opacity:1;stroke:#9b59b6;stroke-width:1.38399994;stroke-miterlimit:4;stroke-opacity:1;stroke-dasharray:none"
       id="path2985-7-51"
       sodipodi:cx="365.67523"
       sodipodi:cy="484.65646"
       sodipodi:rx="76.771591"
       sodipodi:ry="29.294424"
       d="m 442.44682,484.65646 a 76.771591,29.294424 0 1 1 -153.54318,0 76.771591,29.294424 0 1 1 153.54318,0 z"
       transform="matrix(0.39794382,0,0,1.0428872,224.19764,33.762668)" />
    <path
       sodipodi:type="arc"
       style="fill:#9b59b6;fill-opacity:1;stroke:#9b59b6;stroke-width:1.38399994;stroke-miterlimit:4;stroke-opacity:1;stroke-dasharray:none"
       id="path2985-7-7"
       sodipodi:cx="365.67523"
       sodipodi:cy="484.65646"
       sodipodi:rx="76.771591"
       sodipodi:ry="29.294424"
       d="m 442.44682,484.65646 a 76.771591,29.294424 0 1 1 -153.54318,0 76.771591,29.294424 0 1 1 153.54318,0 z"
       transform="matrix(0.39794382,0,0,1.0428872,43.380327,25.681447)" />
    <path
       sodipodi:type="arc"
       style="fill:#9b59b6;fill-opacity:1;stroke:#9b59b6;stroke-width:1.38399994;stroke-miterlimit:4;stroke-opacity:1;stroke-dasharray:none"
       id="path2985-7-1"
       sodipodi:cx="365.67523"
       sodipodi:cy="484.65646"
       sodipodi:rx="76.771591"
       sodipodi:ry="29.294424"
       d="m 442.44682,484.65646 a 76.771591,29.294424 0 1 1 -153.54318,0 76.771591,29.294424 0 1 1 153.54318,0 z"
       transform="matrix(0.39794382,0,0,1.0428872,77.725514,62.046939)" />
    <path
       sodipodi:type="arc"
       style="fill:#9b59b6;fill-opacity:1;stroke:#9b59b6;stroke-width:1.38399994;stroke-miterlimit:4;stroke-opacity:1;stroke-dasharray:none"
       id="path2985-7-15"
       sodipodi:cx="365.67523"
       sodipodi:cy="484.65646"
       sodipodi:rx="76.771591"
       sodipodi:ry="29.294424"
       d="m 442.44682,484.65646 a 76.771591,29.294424 0 1 1 -153.54318,0 76.771591,29.294424 0 1 1 153.54318,0 z"
       transform="matrix(0.39794382,0,0,1.0428872,117.12146,90.33121)" />
    <path
       sodipodi:type="arc"
       style="fill:#9b59b6;fill-opacity:1;stroke:#9b59b6;stroke-width:1.38399994;stroke-miterlimit:4;stroke-opacity:1;stroke-dasharray:none"
       id="path2985-7-27"
       sodipodi:cx="365.67523"
       sodipodi:cy="484.65646"
       sodipodi:rx="76.771591"
       sodipodi:ry="29.294424"
       d="m 442.44682,484.65646 a 76.771591,29.294424 0 1 1 -153.54318,0 76.771591,29.294424 0 1 1 153.54318,0 z"
       transform="matrix(0.39794382,0,0,1.0428872,162.57832,84.270294)" />
    <path
       sodipodi:type="arc"
       style="fill:#9b59b6;fill-opacity:1;stroke:#9b59b6;stroke-width:1.38399994;stroke-miterlimit:4;stroke-opacity:1;stroke-dasharray:none"
       id="path2985-7-6"
       sodipodi:cx="365.67523"
       sodipodi:cy="484.65646"
       sodipodi:rx="76.771591"
       sodipodi:ry="29.294424"
       d="m 442.44682,484.65646 a 76.771591,29.294424 0 1 1 -153.54318,0 76.771591,29.294424 0 1 1 153.54318,0 z"
       transform="matrix(0.39794382,0,0,1.0428872,198.94382,59.016481)" />
    <path
       sodipodi:type="arc"
       style="fill:#9b59b6;fill-opacity:1;stroke:#9b59b6;stroke-width:1.38399994;stroke-miterlimit:4;stroke-opacity:1;stroke-dasharray:none"
       id="path2985-7-14"
       sodipodi:cx="365.67523"
       sodipodi:cy="484.65646"
       sodipodi:rx="76.771591"
       sodipodi:ry="29.294424"
       d="m 442.44682,484.65646 a 76.771591,29.294424 0 1 1 -153.54318,0 76.771591,29.294424 0 1 1 153.54318,0 z"
       transform="matrix(0.39794382,0,0,1.0428872,163.58848,35.782973)" />
    <path
       sodipodi:type="arc"
       style="fill:#9b59b6;fill-opacity:1;stroke:#9b59b6;stroke-width:1.38399994;stroke-miterlimit:4;stroke-opacity:1;stroke-dasharray:none"
       id="path2985-7-23"
       sodipodi:cx="365.67523"
       sodipodi:cy="484.65646"
       sodipodi:rx="76.771591"
       sodipodi:ry="29.294424"
       d="m 442.44682,484.65646 a 76.771591,29.294424 0 1 1 -153.54318,0 76.771591,29.294424 0 1 1 153.54318,0 z"
       transform="matrix(0.39794382,0,0,1.0428872,122.17223,51.945413)" />
    <path
       sodipodi:type="arc"
       style="fill:#9b59b6;fill-opacity:1;stroke:#9b59b6;stroke-width:1.38399994;stroke-miterlimit:4;stroke-opacity:1;stroke-dasharray:none"
       id="path2985-7-22"
       sodipodi:cx="365.67523"
       sodipodi:cy="484.65646"
       sodipodi:rx="76.771591"
       sodipodi:ry="29.294424"
       d="m 442.44682,484.65646 a 76.771591,29.294424 0 1 1 -153.54318,0 76.771591,29.294424 0 1 1 153.54318,0 z"
       transform="matrix(0.39794382,0,0,1.0428872,101.96917,23.661142)" />
    <path
       sodipodi:type="arc"
       style="fill:#9b59b6;fill-opacity:1;stroke:#9b59b6;stroke-width:1.38399994;stroke-miterlimit:4;stroke-opacity:1;stroke-dasharray:none"
       id="path2985-7-16"
       sodipodi:cx="365.67523"
       sodipodi:cy="484.65646"
       sodipodi:rx="76.771591"
       sodipodi:ry="29.294424"
       d="m 442.44682,484.65646 a 76.771591,29.294424 0 1 1 -153.54318,0 76.771591,29.294424 0 1 1 153.54318,0 z"
       transform="matrix(0.39794382,0,0,1.0428872,135.30421,3.4580909)" />
    <path
       sodipodi:type="arc"
       style="fill:#9b59b6;fill-opacity:1;stroke:#9b59b6;stroke-width:1.38399994;stroke-miterlimit:4;stroke-opacity:1;stroke-dasharray:none"
       id="path2985-7-8"
       sodipodi:cx="365.67523"
       sodipodi:cy="484.65646"
       sodipodi:rx="76.771591"
       sodipodi:ry="29.294424"
       d="m 442.44682,484.65646 a 76.771591,29.294424 0 1 1 -153.54318,0 76.771591,29.294424 0 1 1 153.54318,0 z"
       transform="matrix(0.39794382,0,0,1.0428872,68.634144,68.107854)" />
    <path
       sodipodi:type="arc"
       style="fill:#9b59b6;fill-opacity:1;stroke:#9b59b6;stroke-width:1.38399994;stroke-miterlimit:4;stroke-opacity:1;stroke-dasharray:none"
       id="path2985-7-57"
       sodipodi:cx="365.67523"
       sodipodi:cy="484.65646"
       sodipodi:rx="76.771591"
       sodipodi:ry="29.294424"
       d="m 442.44682,484.65646 a 76.771591,29.294424 0 1 1 -153.54318,0 76.771591,29.294424 0 1 1 153.54318,0 z"
       transform="matrix(0.25533621,0,0,0.65191555,111.69084,327.80039)" />
    <path
       sodipodi:type="arc"
       style="fill:#9b59b6;fill-opacity:1;stroke:#9b59b6;stroke-width:1.38399994;stroke-miterlimit:4;stroke-opacity:1;stroke-dasharray:none"
       id="path2985-7-57-8"
       sodipodi:cx="365.67523"
       sodipodi:cy="484.65646"
       sodipodi:rx="76.771591"
       sodipodi:ry="29.294424"
       d="m 442.44682,484.65646 a 76.771591,29.294424 0 1 1 -153.54318,0 76.771591,29.294424 0 1 1 153.54318,0 z"
       transform="matrix(0.25533621,0,0,0.65191555,58.152755,365.68111)" />
    <path
       sodipodi:type="arc"
       style="fill:#9b59b6;fill-opacity:1;stroke:#9b59b6;stroke-width:1.38399994;stroke-miterlimit:4;stroke-opacity:1;stroke-dasharray:none"
       id="path2985-7-57-9"
       sodipodi:cx="365.67523"
       sodipodi:cy="484.65646"
       sodipodi:rx="76.771591"
       sodipodi:ry="29.294424"
       d="m 442.44682,484.65646 a 76.771591,29.294424 0 1 1 -153.54318,0 76.771591,29.294424 0 1 1 153.54318,0 z"
       transform="matrix(0.25533621,0,0,0.65191555,-9.5274664,375.78264)" />
    <path
       sodipodi:type="arc"
       style="fill:#9b59b6;fill-opacity:1;stroke:#9b59b6;stroke-width:1.38399994;stroke-miterlimit:4;stroke-opacity:1;stroke-dasharray:none"
       id="path2985-7-57-2"
       sodipodi:cx="365.67523"
       sodipodi:cy="484.65646"
       sodipodi:rx="76.771591"
       sodipodi:ry="29.294424"
       d="m 442.44682,484.65646 a 76.771591,29.294424 0 1 1 -153.54318,0 76.771591,29.294424 0 1 1 153.54318,0 z"
       transform="matrix(0.25533621,0,0,0.65191555,-78.21784,379.82325)" />
    <g
       id="g4106"
       transform="matrix(1.6961225,0,0,1,-224.07461,0)"
       inkscape:export-filename="D:\Projects\GitHub\taskManager\app\assets\images\bannergoals.png"
       inkscape:export-xdpi="42.307205"
       inkscape:export-ydpi="42.307205">
      <g
         id="g4101">
        <path
           sodipodi:type="arc"
           style="fill:#ecf0f1;fill-opacity:1;stroke:#ecf0f1;stroke-width:1.38399994;stroke-miterlimit:4;stroke-opacity:1;stroke-dasharray:none"
           id="path3755-7"
           sodipodi:cx="306.5813"
           sodipodi:cy="522.53717"
           sodipodi:rx="81.317284"
           sodipodi:ry="30.809652"
           d="m 387.89858,522.53717 c 0,17.0157 -36.40699,30.80965 -81.31728,30.80965 -44.9103,0 -81.31728,-13.79395 -81.31728,-30.80965 0,-17.0157 36.40698,-30.80965 81.31728,-30.80965 44.91029,0 81.31728,13.79395 81.31728,30.80965 z"
           transform="matrix(0.9990874,0,0,1.2270995,81.597063,-380.80254)"
           inkscape:export-filename="D:\Projects\GitHub\taskManager\app\assets\images\bannergoals.png"
           inkscape:export-xdpi="42.307205"
           inkscape:export-ydpi="42.307205" />
        <path
           sodipodi:type="arc"
           style="fill:#000000;fill-opacity:1;stroke:#000000;stroke-width:1.38399994;stroke-miterlimit:4;stroke-opacity:1;stroke-dasharray:none"
           id="path2985-4"
           sodipodi:cx="365.67523"
           sodipodi:cy="484.65646"
           sodipodi:rx="76.771591"
           sodipodi:ry="29.294424"
           d="m 442.44682,484.65646 c 0,16.17887 -34.37181,29.29443 -76.77159,29.29443 -42.39978,0 -76.77159,-13.11556 -76.77159,-29.29443 0,-16.17886 34.37181,-29.29442 76.77159,-29.29442 42.39978,0 76.77159,13.11556 76.77159,29.29442 z"
           transform="matrix(0.92511347,0,0,1.7692629,117.79279,-627.38668)"
           inkscape:export-filename="D:\Projects\GitHub\taskManager\app\assets\images\bannergoals.png"
           inkscape:export-xdpi="42.307205"
           inkscape:export-ydpi="42.307205" />
        <path
           sodipodi:type="arc"
           style="fill:#9b59b6;fill-opacity:1;stroke:#9b59b6;stroke-width:1.38399994;stroke-miterlimit:4;stroke-opacity:1;stroke-dasharray:none"
           id="path2985-9"
           sodipodi:cx="365.67523"
           sodipodi:cy="484.65646"
           sodipodi:rx="76.771591"
           sodipodi:ry="29.294424"
           d="m 442.44682,484.65646 c 0,16.17887 -34.37181,29.29443 -76.77159,29.29443 -42.39978,0 -76.77159,-13.11556 -76.77159,-29.29443 0,-16.17886 34.37181,-29.29442 76.77159,-29.29442 42.39978,0 76.77159,13.11556 76.77159,29.29442 z"
           transform="matrix(0.7955696,0,0,1.3952858,159.10286,-447.14644)"
           inkscape:export-filename="D:\Projects\GitHub\taskManager\app\assets\images\bannergoals.png"
           inkscape:export-xdpi="42.307205"
           inkscape:export-ydpi="42.307205" />
      </g>
      <path
         inkscape:export-ydpi="42.307205"
         inkscape:export-xdpi="42.307205"
         inkscape:export-filename="D:\Projects\GitHub\taskManager\app\assets\images\bannergoals.png"
         transform="matrix(0.85607013,0,0,0.74748998,247.94503,-248.19476)"
         d="m 230.31478,645.27069 c 0,25.10513 -32.56277,45.45686 -72.73098,45.45686 -40.16821,0 -72.730979,-20.35173 -72.730979,-45.45686 0,-25.10513 32.562769,-45.45686 72.730979,-45.45686 40.16821,0 72.73098,20.35173 72.73098,45.45686 z"
         sodipodi:ry="45.456863"
         sodipodi:rx="72.73098"
         sodipodi:cy="645.27069"
         sodipodi:cx="157.5838"
         id="path3757-5"
         style="fill:#ffffff;fill-opacity:1;stroke:#ffffff;stroke-width:1.38399994;stroke-miterlimit:4;stroke-opacity:1;stroke-dasharray:none"
         sodipodi:type="arc" />
    </g>
  </g>
</svg>
